<svg xmlns="http://www.w3.org/2000/svg" width="640" height="420" viewBox="0 0 640 420" font-family="sans-serif" font-size="11">
<rect width="640" height="420" fill="#ffffff"/>
<text x="78" y="22" font-size="13" font-weight="bold">Absolute error by emulated reduction order (exact zeros omitted)</text>
<rect x="78" y="40" width="392" height="322" fill="none" stroke="#333"/>
<line x1="78.00" y1="40" x2="78.00" y2="362" stroke="#e5e7eb"/>
<text x="78.00" y="378" text-anchor="middle">0</text>
<line x1="228.77" y1="40" x2="228.77" y2="362" stroke="#e5e7eb"/>
<text x="228.77" y="378" text-anchor="middle">5</text>
<line x1="379.54" y1="40" x2="379.54" y2="362" stroke="#e5e7eb"/>
<text x="379.54" y="378" text-anchor="middle">10</text>
<line x1="78" y1="312.38" x2="470" y2="312.38" stroke="#e5e7eb"/>
<text x="72" y="316.38" text-anchor="end">1e-8</text>
<line x1="78" y1="255.77" x2="470" y2="255.77" stroke="#e5e7eb"/>
<text x="72" y="259.77" text-anchor="end">1e-6</text>
<line x1="78" y1="199.17" x2="470" y2="199.17" stroke="#e5e7eb"/>
<text x="72" y="203.17" text-anchor="end">1e-4</text>
<line x1="78" y1="142.56" x2="470" y2="142.56" stroke="#e5e7eb"/>
<text x="72" y="146.56" text-anchor="end">1e-2</text>
<line x1="78" y1="85.96" x2="470" y2="85.96" stroke="#e5e7eb"/>
<text x="72" y="89.96" text-anchor="end">1e0</text>
<text x="274.00" y="406" text-anchor="middle">order index (figure_order in reductions.json)</text>
<text x="16" y="201.00" text-anchor="middle" transform="rotate(-90 16 201.00)">|sum - exact|</text>
<path d="M78.00,51.93 L108.15,120.32 L138.31,106.44 L168.46,106.44 L198.62,93.06 L228.77,120.32 L258.92,96.08 L289.08,90.54 L319.23,106.44 L349.38,106.44 L379.54,120.32 L409.69,96.08 L439.85,96.08 L470.00,90.54" fill="none" stroke="#1f5fa8" stroke-width="1.8"/>
<circle cx="78.00" cy="51.93" r="2.6" fill="#1f5fa8"/>
<circle cx="108.15" cy="120.32" r="2.6" fill="#1f5fa8"/>
<circle cx="138.31" cy="106.44" r="2.6" fill="#1f5fa8"/>
<circle cx="168.46" cy="106.44" r="2.6" fill="#1f5fa8"/>
<circle cx="198.62" cy="93.06" r="2.6" fill="#1f5fa8"/>
<circle cx="228.77" cy="120.32" r="2.6" fill="#1f5fa8"/>
<circle cx="258.92" cy="96.08" r="2.6" fill="#1f5fa8"/>
<circle cx="289.08" cy="90.54" r="2.6" fill="#1f5fa8"/>
<circle cx="319.23" cy="106.44" r="2.6" fill="#1f5fa8"/>
<circle cx="349.38" cy="106.44" r="2.6" fill="#1f5fa8"/>
<circle cx="379.54" cy="120.32" r="2.6" fill="#1f5fa8"/>
<circle cx="409.69" cy="96.08" r="2.6" fill="#1f5fa8"/>
<circle cx="439.85" cy="96.08" r="2.6" fill="#1f5fa8"/>
<circle cx="470.00" cy="90.54" r="2.6" fill="#1f5fa8"/>
<line x1="482" y1="52" x2="502" y2="52" stroke="#1f5fa8" stroke-width="2"/>
<text x="508" y="56">positive-float32</text>
<path d="M198.62,341.55 L258.92,336.57 L289.08,341.55 L319.23,350.07 L349.38,350.07 L379.54,341.55 L439.85,336.57 L470.00,336.57" fill="none" stroke="#c2410c" stroke-width="1.8"/>
<circle cx="198.62" cy="341.55" r="2.6" fill="#c2410c"/>
<circle cx="258.92" cy="336.57" r="2.6" fill="#c2410c"/>
<circle cx="289.08" cy="341.55" r="2.6" fill="#c2410c"/>
<circle cx="319.23" cy="350.07" r="2.6" fill="#c2410c"/>
<circle cx="349.38" cy="350.07" r="2.6" fill="#c2410c"/>
<circle cx="379.54" cy="341.55" r="2.6" fill="#c2410c"/>
<circle cx="439.85" cy="336.57" r="2.6" fill="#c2410c"/>
<circle cx="470.00" cy="336.57" r="2.6" fill="#c2410c"/>
<line x1="482" y1="70" x2="502" y2="70" stroke="#c2410c" stroke-width="2"/>
<text x="508" y="74">positive-float64</text>
<path d="M78.00,101.87 L138.31,145.60 L168.46,144.15 L198.62,148.03 L228.77,168.41 L258.92,147.24 L289.08,143.49 L319.23,154.12 L349.38,146.81 L379.54,145.60 L409.69,135.63 L439.85,150.20 L470.00,140.11" fill="none" stroke="#15803d" stroke-width="1.8"/>
<circle cx="78.00" cy="101.87" r="2.6" fill="#15803d"/>
<circle cx="138.31" cy="145.60" r="2.6" fill="#15803d"/>
<circle cx="168.46" cy="144.15" r="2.6" fill="#15803d"/>
<circle cx="198.62" cy="148.03" r="2.6" fill="#15803d"/>
<circle cx="228.77" cy="168.41" r="2.6" fill="#15803d"/>
<circle cx="258.92" cy="147.24" r="2.6" fill="#15803d"/>
<circle cx="289.08" cy="143.49" r="2.6" fill="#15803d"/>
<circle cx="319.23" cy="154.12" r="2.6" fill="#15803d"/>
<circle cx="349.38" cy="146.81" r="2.6" fill="#15803d"/>
<circle cx="379.54" cy="145.60" r="2.6" fill="#15803d"/>
<circle cx="409.69" cy="135.63" r="2.6" fill="#15803d"/>
<circle cx="439.85" cy="150.20" r="2.6" fill="#15803d"/>
<circle cx="470.00" cy="140.11" r="2.6" fill="#15803d"/>
<line x1="482" y1="88" x2="502" y2="88" stroke="#15803d" stroke-width="2"/>
<text x="508" y="92">cancellation-float32</text>
<path d="M78.00,94.21 L108.15,145.60 L138.31,145.60 L168.46,147.24 L198.62,132.89 L258.92,157.65 L289.08,149.13 L319.23,162.64 L349.38,141.14 L379.54,142.85 L409.69,145.22 L439.85,142.85 L470.00,154.12" fill="none" stroke="#7e22ce" stroke-width="1.8"/>
<circle cx="78.00" cy="94.21" r="2.6" fill="#7e22ce"/>
<circle cx="108.15" cy="145.60" r="2.6" fill="#7e22ce"/>
<circle cx="138.31" cy="145.60" r="2.6" fill="#7e22ce"/>
<circle cx="168.46" cy="147.24" r="2.6" fill="#7e22ce"/>
<circle cx="198.62" cy="132.89" r="2.6" fill="#7e22ce"/>
<circle cx="258.92" cy="157.65" r="2.6" fill="#7e22ce"/>
<circle cx="289.08" cy="149.13" r="2.6" fill="#7e22ce"/>
<circle cx="319.23" cy="162.64" r="2.6" fill="#7e22ce"/>
<circle cx="349.38" cy="141.14" r="2.6" fill="#7e22ce"/>
<circle cx="379.54" cy="142.85" r="2.6" fill="#7e22ce"/>
<circle cx="409.69" cy="145.22" r="2.6" fill="#7e22ce"/>
<circle cx="439.85" cy="142.85" r="2.6" fill="#7e22ce"/>
<circle cx="470.00" cy="154.12" r="2.6" fill="#7e22ce"/>
<line x1="482" y1="106" x2="502" y2="106" stroke="#7e22ce" stroke-width="2"/>
<text x="508" y="110">cancellation-native-float64</text>
</svg>
