<svg xmlns="http://www.w3.org/2000/svg" width="640" height="420" viewBox="0 0 640 420" font-family="sans-serif" font-size="11">
<rect width="640" height="420" fill="#ffffff"/>
<text x="78" y="22" font-size="13" font-weight="bold">Cylinder R = 1: chord coefficient</text>
<rect x="78" y="40" width="392" height="322" fill="none" stroke="#333"/>
<line x1="78.00" y1="40" x2="78.00" y2="362" stroke="#e5e7eb"/>
<text x="78.00" y="378" text-anchor="middle">0</text>
<line x1="165.11" y1="40" x2="165.11" y2="362" stroke="#e5e7eb"/>
<text x="165.11" y="378" text-anchor="middle">20</text>
<line x1="252.22" y1="40" x2="252.22" y2="362" stroke="#e5e7eb"/>
<text x="252.22" y="378" text-anchor="middle">40</text>
<line x1="339.33" y1="40" x2="339.33" y2="362" stroke="#e5e7eb"/>
<text x="339.33" y="378" text-anchor="middle">60</text>
<line x1="426.44" y1="40" x2="426.44" y2="362" stroke="#e5e7eb"/>
<text x="426.44" y="378" text-anchor="middle">80</text>
<line x1="78" y1="350.07" x2="470" y2="350.07" stroke="#e5e7eb"/>
<text x="72" y="354.07" text-anchor="end">0</text>
<line x1="78" y1="278.52" x2="470" y2="278.52" stroke="#e5e7eb"/>
<text x="72" y="282.52" text-anchor="end">0.01</text>
<line x1="78" y1="206.96" x2="470" y2="206.96" stroke="#e5e7eb"/>
<text x="72" y="210.96" text-anchor="end">0.02</text>
<line x1="78" y1="135.41" x2="470" y2="135.41" stroke="#e5e7eb"/>
<text x="72" y="139.41" text-anchor="end">0.03</text>
<line x1="78" y1="63.85" x2="470" y2="63.85" stroke="#e5e7eb"/>
<text x="72" y="67.85" text-anchor="end">0.04</text>
<text x="274.00" y="406" text-anchor="middle">alpha from circumferential (deg)</text>
<text x="16" y="201.00" text-anchor="middle" transform="rotate(-90 16 201.00)">(s - c)/s^3 at s -&gt; 0</text>
<path d="M78.00,51.93 L143.33,90.53 L208.67,182.37 L274.00,275.54 L339.33,331.44 L404.67,348.74 L470.00,350.07" fill="none" stroke="#1f5fa8" stroke-width="1.8"/>
<circle cx="78.00" cy="51.93" r="2.6" fill="#1f5fa8"/>
<circle cx="143.33" cy="90.53" r="2.6" fill="#1f5fa8"/>
<circle cx="208.67" cy="182.37" r="2.6" fill="#1f5fa8"/>
<circle cx="274.00" cy="275.54" r="2.6" fill="#1f5fa8"/>
<circle cx="339.33" cy="331.44" r="2.6" fill="#1f5fa8"/>
<circle cx="404.67" cy="348.74" r="2.6" fill="#1f5fa8"/>
<circle cx="470.00" cy="350.07" r="2.6" fill="#1f5fa8"/>
<line x1="482" y1="52" x2="502" y2="52" stroke="#1f5fa8" stroke-width="2"/>
<text x="508" y="56">fitted (exact chord)</text>
<path d="M78.00,51.93 L143.33,90.53 L208.67,182.37 L274.00,275.54 L339.33,331.44 L404.67,348.74 L470.00,350.07" fill="none" stroke="#c2410c" stroke-width="1.8"/>
<circle cx="78.00" cy="51.93" r="2.6" fill="#c2410c"/>
<circle cx="143.33" cy="90.53" r="2.6" fill="#c2410c"/>
<circle cx="208.67" cy="182.37" r="2.6" fill="#c2410c"/>
<circle cx="274.00" cy="275.54" r="2.6" fill="#c2410c"/>
<circle cx="339.33" cy="331.44" r="2.6" fill="#c2410c"/>
<circle cx="404.67" cy="348.74" r="2.6" fill="#c2410c"/>
<circle cx="470.00" cy="350.07" r="2.6" fill="#c2410c"/>
<line x1="482" y1="70" x2="502" y2="70" stroke="#c2410c" stroke-width="2"/>
<text x="508" y="74">cos^4(alpha)/24</text>
</svg>
