<svg xmlns="http://www.w3.org/2000/svg" width="640" height="420" viewBox="0 0 640 420" font-family="sans-serif" font-size="11">
<rect width="640" height="420" fill="#ffffff"/>
<text x="78" y="22" font-size="13" font-weight="bold">Gaussian curvature along the standard paths</text>
<rect x="78" y="40" width="392" height="322" fill="none" stroke="#333"/>
<line x1="78.00" y1="40" x2="78.00" y2="362" stroke="#e5e7eb"/>
<text x="78.00" y="378" text-anchor="middle">0</text>
<line x1="208.67" y1="40" x2="208.67" y2="362" stroke="#e5e7eb"/>
<text x="208.67" y="378" text-anchor="middle">1</text>
<line x1="339.33" y1="40" x2="339.33" y2="362" stroke="#e5e7eb"/>
<text x="339.33" y="378" text-anchor="middle">2</text>
<line x1="470.00" y1="40" x2="470.00" y2="362" stroke="#e5e7eb"/>
<text x="470.00" y="378" text-anchor="middle">3</text>
<line x1="78" y1="248.43" x2="470" y2="248.43" stroke="#e5e7eb"/>
<text x="72" y="252.43" text-anchor="end">-0.5</text>
<line x1="78" y1="126.38" x2="470" y2="126.38" stroke="#e5e7eb"/>
<text x="72" y="130.38" text-anchor="end">0</text>
<text x="274.00" y="406" text-anchor="middle">arclength s</text>
<text x="16" y="201.00" text-anchor="middle" transform="rotate(-90 16 201.00)">K(gamma(s))</text>
<path d="M78.00,347.80 L81.92,349.28 L85.84,350.05 L89.76,350.07 L93.68,349.36 L97.60,347.93 L101.52,345.78 L105.44,342.96 L109.36,339.51 L113.28,335.46 L117.20,330.88 L121.12,325.82 L125.04,320.35 L128.96,314.52 L132.88,308.41 L136.80,302.06 L140.72,295.56 L144.64,288.94 L148.56,282.28 L152.48,275.60 L156.40,268.97 L160.32,262.41 L164.24,255.97 L168.16,249.67 L172.08,243.53 L176.00,237.58 L179.92,231.83 L183.84,226.29 L187.76,220.97 L191.68,215.87 L195.60,211.00 L199.52,206.36 L203.44,201.94 L207.36,197.75 L211.28,193.77 L215.20,190.00 L219.12,186.43 L223.04,183.06 L226.96,179.88 L230.88,176.88 L234.80,174.05 L238.72,171.39 L242.64,168.88 L246.56,166.51 L250.48,164.29 L254.40,162.20 L258.32,160.23 L262.24,158.38 L266.16,156.64 L270.08,155.01 L274.00,153.47" fill="none" stroke="#1f5fa8" stroke-width="1.8"/>
<line x1="482" y1="52" x2="502" y2="52" stroke="#1f5fa8" stroke-width="2"/>
<text x="508" y="56">saddle ciw</text>
<path d="M78.00,347.80 L81.92,349.28 L85.84,350.05 L89.76,350.07 L93.68,349.36 L97.60,347.93 L101.52,345.78 L105.44,342.96 L109.36,339.51 L113.28,335.46 L117.20,330.88 L121.12,325.82 L125.04,320.35 L128.96,314.52 L132.88,308.41 L136.80,302.06 L140.72,295.56 L144.64,288.94 L148.56,282.28 L152.48,275.60 L156.40,268.97 L160.32,262.41 L164.24,255.97 L168.16,249.67 L172.08,243.53 L176.00,237.58 L179.92,231.83 L183.84,226.29 L187.76,220.97 L191.68,215.87 L195.60,211.00 L199.52,206.36 L203.44,201.94 L207.36,197.75 L211.28,193.77 L215.20,190.00 L219.12,186.43 L223.04,183.06 L226.96,179.88 L230.88,176.88 L234.80,174.05 L238.72,171.39 L242.64,168.88 L246.56,166.51 L250.48,164.29 L254.40,162.20 L258.32,160.23 L262.24,158.38 L266.16,156.64 L270.08,155.01 L274.00,153.47" fill="none" stroke="#c2410c" stroke-width="1.8"/>
<line x1="482" y1="70" x2="502" y2="70" stroke="#c2410c" stroke-width="2"/>
<text x="508" y="74">saddle sympy</text>
<path d="M78.00,51.93 L87.80,53.35 L97.60,54.91 L107.40,56.58 L117.20,58.36 L127.00,60.26 L136.80,62.25 L146.60,64.34 L156.40,66.50 L166.20,68.75 L176.00,71.05 L185.80,73.40 L195.60,75.79 L205.40,78.19 L215.20,80.60 L225.00,82.99 L234.80,85.34 L244.60,87.64 L254.40,89.87 L264.20,92.00 L274.00,94.02 L283.80,95.90 L293.60,97.63 L303.40,99.19 L313.20,100.55 L323.00,101.71 L332.80,102.66 L342.60,103.37 L352.40,103.84 L362.20,104.07 L372.00,104.05 L381.80,103.79 L391.60,103.28 L401.40,102.54 L411.20,101.56 L421.00,100.37 L430.80,98.98 L440.60,97.40 L450.40,95.65 L460.20,93.74 L470.00,91.71" fill="none" stroke="#15803d" stroke-width="1.8"/>
<line x1="482" y1="88" x2="502" y2="88" stroke="#15803d" stroke-width="2"/>
<text x="508" y="92">torus ciw</text>
<path d="M78.00,51.93 L87.80,53.35 L97.60,54.91 L107.40,56.58 L117.20,58.36 L127.00,60.26 L136.80,62.25 L146.60,64.34 L156.40,66.50 L166.20,68.75 L176.00,71.05 L185.80,73.40 L195.60,75.79 L205.40,78.19 L215.20,80.60 L225.00,82.99 L234.80,85.34 L244.60,87.64 L254.40,89.87 L264.20,92.00 L274.00,94.02 L283.80,95.90 L293.60,97.63 L303.40,99.19 L313.20,100.55 L323.00,101.71 L332.80,102.66 L342.60,103.37 L352.40,103.84 L362.20,104.07 L372.00,104.05 L381.80,103.79 L391.60,103.28 L401.40,102.54 L411.20,101.56 L421.00,100.37 L430.80,98.98 L440.60,97.40 L450.40,95.65 L460.20,93.74 L470.00,91.71" fill="none" stroke="#7e22ce" stroke-width="1.8"/>
<line x1="482" y1="106" x2="502" y2="106" stroke="#7e22ce" stroke-width="2"/>
<text x="508" y="110">torus sympy</text>
<path d="M78.00,132.35 L85.78,131.52 L93.56,130.45 L101.33,129.15 L109.11,127.61 L116.89,125.83 L124.67,123.82 L132.44,121.59 L140.22,119.18 L148.00,116.61 L155.78,113.93 L163.56,111.18 L171.33,108.44 L179.11,105.78 L186.89,103.28 L194.67,101.01 L202.44,99.08 L210.22,97.54 L218.00,96.47 L225.78,95.91 L233.56,95.89 L241.33,96.40 L249.11,97.43 L256.89,98.93 L264.67,100.84 L272.44,103.08 L280.22,105.57 L288.00,108.22 L295.78,110.96 L303.56,113.70 L311.33,116.39 L319.11,118.97 L326.89,121.40 L334.67,123.64 L342.44,125.67 L350.22,127.47 L358.00,129.03 L365.78,130.36 L373.56,131.44 L381.33,132.29 L389.11,132.92 L396.89,133.34 L404.67,133.57" fill="none" stroke="#b91c1c" stroke-width="1.8"/>
<line x1="482" y1="124" x2="502" y2="124" stroke="#b91c1c" stroke-width="2"/>
<text x="508" y="128">bump ciw</text>
<path d="M78.00,132.35 L85.78,131.52 L93.56,130.45 L101.33,129.15 L109.11,127.61 L116.89,125.83 L124.67,123.82 L132.44,121.59 L140.22,119.18 L148.00,116.61 L155.78,113.93 L163.56,111.18 L171.33,108.44 L179.11,105.78 L186.89,103.28 L194.67,101.01 L202.44,99.08 L210.22,97.54 L218.00,96.47 L225.78,95.91 L233.56,95.89 L241.33,96.40 L249.11,97.43 L256.89,98.93 L264.67,100.84 L272.44,103.08 L280.22,105.57 L288.00,108.22 L295.78,110.96 L303.56,113.70 L311.33,116.39 L319.11,118.97 L326.89,121.40 L334.67,123.64 L342.44,125.67 L350.22,127.47 L358.00,129.03 L365.78,130.36 L373.56,131.44 L381.33,132.29 L389.11,132.92 L396.89,133.34 L404.67,133.57" fill="none" stroke="#0f766e" stroke-width="1.8"/>
<line x1="482" y1="142" x2="502" y2="142" stroke="#0f766e" stroke-width="2"/>
<text x="508" y="146">bump sympy</text>
</svg>
