<svg xmlns="http://www.w3.org/2000/svg" width="640" height="420" viewBox="0 0 640 420" font-family="sans-serif" font-size="11">
<rect width="640" height="420" fill="#ffffff"/>
<text x="78" y="22" font-size="13" font-weight="bold">Separation where the first-order prediction vanishes</text>
<rect x="78" y="40" width="392" height="322" fill="none" stroke="#333"/>
<line x1="208.67" y1="40" x2="208.67" y2="362" stroke="#e5e7eb"/>
<text x="208.67" y="378" text-anchor="middle">1e-2</text>
<line x1="78" y1="345.39" x2="470" y2="345.39" stroke="#e5e7eb"/>
<text x="72" y="349.39" text-anchor="end">1e-7</text>
<line x1="78" y1="278.84" x2="470" y2="278.84" stroke="#e5e7eb"/>
<text x="72" y="282.84" text-anchor="end">1e-6</text>
<line x1="78" y1="212.30" x2="470" y2="212.30" stroke="#e5e7eb"/>
<text x="72" y="216.30" text-anchor="end">1e-5</text>
<line x1="78" y1="145.76" x2="470" y2="145.76" stroke="#e5e7eb"/>
<text x="72" y="149.76" text-anchor="end">1e-4</text>
<line x1="78" y1="79.22" x2="470" y2="79.22" stroke="#e5e7eb"/>
<text x="72" y="83.22" text-anchor="end">1e-3</text>
<text x="274.00" y="406" text-anchor="middle">eps</text>
<text x="16" y="201.00" text-anchor="middle" transform="rotate(-90 16 201.00)">chord</text>
<path d="M78.00,350.07 L208.67,289.98 L339.33,229.88 L470.00,169.78" fill="none" stroke="#1f5fa8" stroke-width="1.8"/>
<circle cx="78.00" cy="350.07" r="2.6" fill="#1f5fa8"/>
<circle cx="208.67" cy="289.98" r="2.6" fill="#1f5fa8"/>
<circle cx="339.33" cy="229.88" r="2.6" fill="#1f5fa8"/>
<circle cx="470.00" cy="169.78" r="2.6" fill="#1f5fa8"/>
<line x1="482" y1="52" x2="502" y2="52" stroke="#1f5fa8" stroke-width="2"/>
<text x="508" y="56">torus equator (chord)</text>
<path d="M78.00,173.52 L208.67,133.26 L339.33,92.80 L470.00,51.93" fill="none" stroke="#c2410c" stroke-width="1.8"/>
<circle cx="78.00" cy="173.52" r="2.6" fill="#c2410c"/>
<circle cx="208.67" cy="133.26" r="2.6" fill="#c2410c"/>
<circle cx="339.33" cy="92.80" r="2.6" fill="#c2410c"/>
<circle cx="470.00" cy="51.93" r="2.6" fill="#c2410c"/>
<line x1="482" y1="70" x2="502" y2="70" stroke="#c2410c" stroke-width="2"/>
<text x="508" y="74">torus generic (chord)</text>
<path d="M78.00,205.86 L208.67,165.79 L339.33,125.73 L470.00,85.67" fill="none" stroke="#15803d" stroke-width="1.8"/>
<circle cx="78.00" cy="205.86" r="2.6" fill="#15803d"/>
<circle cx="208.67" cy="165.79" r="2.6" fill="#15803d"/>
<circle cx="339.33" cy="125.73" r="2.6" fill="#15803d"/>
<circle cx="470.00" cy="85.67" r="2.6" fill="#15803d"/>
<line x1="482" y1="88" x2="502" y2="88" stroke="#15803d" stroke-width="2"/>
<text x="508" y="92">sphere lateral+heading at 3pi/4</text>
</svg>
