<svg xmlns="http://www.w3.org/2000/svg" width="640" height="420" viewBox="0 0 640 420" font-family="sans-serif" font-size="11">
<rect width="640" height="420" fill="#ffffff"/>
<text x="78" y="22" font-size="13" font-weight="bold">Global endpoint error on hyperbolic-plane</text>
<rect x="78" y="40" width="392" height="322" fill="none" stroke="#333"/>
<line x1="235.26" y1="40" x2="235.26" y2="362" stroke="#e5e7eb"/>
<text x="235.26" y="378" text-anchor="middle">1e-2</text>
<line x1="78" y1="346.94" x2="470" y2="346.94" stroke="#e5e7eb"/>
<text x="72" y="350.94" text-anchor="end">1e-10</text>
<line x1="78" y1="311.83" x2="470" y2="311.83" stroke="#e5e7eb"/>
<text x="72" y="315.83" text-anchor="end">1e-9</text>
<line x1="78" y1="276.71" x2="470" y2="276.71" stroke="#e5e7eb"/>
<text x="72" y="280.71" text-anchor="end">1e-8</text>
<line x1="78" y1="241.59" x2="470" y2="241.59" stroke="#e5e7eb"/>
<text x="72" y="245.59" text-anchor="end">1e-7</text>
<line x1="78" y1="206.48" x2="470" y2="206.48" stroke="#e5e7eb"/>
<text x="72" y="210.48" text-anchor="end">1e-6</text>
<line x1="78" y1="171.36" x2="470" y2="171.36" stroke="#e5e7eb"/>
<text x="72" y="175.36" text-anchor="end">1e-5</text>
<line x1="78" y1="136.25" x2="470" y2="136.25" stroke="#e5e7eb"/>
<text x="72" y="140.25" text-anchor="end">1e-4</text>
<line x1="78" y1="101.13" x2="470" y2="101.13" stroke="#e5e7eb"/>
<text x="72" y="105.13" text-anchor="end">1e-3</text>
<line x1="78" y1="66.01" x2="470" y2="66.01" stroke="#e5e7eb"/>
<text x="72" y="70.01" text-anchor="end">1e-2</text>
<text x="274.00" y="406" text-anchor="middle">step h</text>
<text x="16" y="201.00" text-anchor="middle" transform="rotate(-90 16 201.00)">endpoint error</text>
<path d="M344.36,51.93 L255.57,62.63 L166.79,73.27 L78.00,83.87" fill="none" stroke="#1f5fa8" stroke-width="1.8"/>
<circle cx="344.36" cy="51.93" r="2.6" fill="#1f5fa8"/>
<circle cx="255.57" cy="62.63" r="2.6" fill="#1f5fa8"/>
<circle cx="166.79" cy="73.27" r="2.6" fill="#1f5fa8"/>
<circle cx="78.00" cy="83.87" r="2.6" fill="#1f5fa8"/>
<line x1="482" y1="52" x2="502" y2="52" stroke="#1f5fa8" stroke-width="2"/>
<text x="508" y="56">euler</text>
<path d="M433.15,101.57 L344.36,122.78 L255.57,143.95 L166.79,165.11" fill="none" stroke="#c2410c" stroke-width="1.8"/>
<circle cx="433.15" cy="101.57" r="2.6" fill="#c2410c"/>
<circle cx="344.36" cy="122.78" r="2.6" fill="#c2410c"/>
<circle cx="255.57" cy="143.95" r="2.6" fill="#c2410c"/>
<circle cx="166.79" cy="165.11" r="2.6" fill="#c2410c"/>
<line x1="482" y1="70" x2="502" y2="70" stroke="#c2410c" stroke-width="2"/>
<text x="508" y="74">midpoint</text>
<path d="M470.00,224.34 L381.21,265.99 L292.43,307.95 L203.64,350.07" fill="none" stroke="#15803d" stroke-width="1.8"/>
<circle cx="470.00" cy="224.34" r="2.6" fill="#15803d"/>
<circle cx="381.21" cy="265.99" r="2.6" fill="#15803d"/>
<circle cx="292.43" cy="307.95" r="2.6" fill="#15803d"/>
<circle cx="203.64" cy="350.07" r="2.6" fill="#15803d"/>
<line x1="482" y1="88" x2="502" y2="88" stroke="#15803d" stroke-width="2"/>
<text x="508" y="92">rk4</text>
</svg>
