<svg xmlns="http://www.w3.org/2000/svg" width="640" height="420" viewBox="0 0 640 420" font-family="sans-serif" font-size="11">
<rect width="640" height="420" fill="#ffffff"/>
<text x="78" y="22" font-size="13" font-weight="bold">T109 relative difference of Lyapunov solutions</text>
<rect x="78" y="40" width="392" height="322" fill="none" stroke="#333"/>
<line x1="127.92" y1="40" x2="127.92" y2="362" stroke="#e5e7eb"/>
<text x="127.92" y="378" text-anchor="middle">1e2</text>
<line x1="177.87" y1="40" x2="177.87" y2="362" stroke="#e5e7eb"/>
<text x="177.87" y="378" text-anchor="middle">1e4</text>
<line x1="227.81" y1="40" x2="227.81" y2="362" stroke="#e5e7eb"/>
<text x="227.81" y="378" text-anchor="middle">1e6</text>
<line x1="277.75" y1="40" x2="277.75" y2="362" stroke="#e5e7eb"/>
<text x="277.75" y="378" text-anchor="middle">1e8</text>
<line x1="327.69" y1="40" x2="327.69" y2="362" stroke="#e5e7eb"/>
<text x="327.69" y="378" text-anchor="middle">1e10</text>
<line x1="377.63" y1="40" x2="377.63" y2="362" stroke="#e5e7eb"/>
<text x="377.63" y="378" text-anchor="middle">1e12</text>
<line x1="427.58" y1="40" x2="427.58" y2="362" stroke="#e5e7eb"/>
<text x="427.58" y="378" text-anchor="middle">1e14</text>
<line x1="78" y1="317.57" x2="470" y2="317.57" stroke="#e5e7eb"/>
<text x="72" y="321.57" text-anchor="end">1e-16</text>
<line x1="78" y1="268.82" x2="470" y2="268.82" stroke="#e5e7eb"/>
<text x="72" y="272.82" text-anchor="end">1e-13</text>
<line x1="78" y1="220.07" x2="470" y2="220.07" stroke="#e5e7eb"/>
<text x="72" y="224.07" text-anchor="end">1e-10</text>
<line x1="78" y1="171.31" x2="470" y2="171.31" stroke="#e5e7eb"/>
<text x="72" y="175.31" text-anchor="end">1e-7</text>
<line x1="78" y1="122.56" x2="470" y2="122.56" stroke="#e5e7eb"/>
<text x="72" y="126.56" text-anchor="end">1e-4</text>
<line x1="78" y1="73.81" x2="470" y2="73.81" stroke="#e5e7eb"/>
<text x="72" y="77.81" text-anchor="end">1e-1</text>
<text x="274.00" y="406" text-anchor="middle">condition number of P</text>
<text x="16" y="201.00" text-anchor="middle" transform="rotate(-90 16 201.00)">||P_PLSR - P_ind|| / ||P_ind||</text>
<path d="M88.42,350.07 L97.97,350.07 L98.02,316.38 L120.93,312.60 L170.36,350.07 L220.29,350.07 L270.23,316.79 L320.17,315.05 L370.12,350.07 L470.00,314.71 L114.35,297.18 L78.00,297.70 L78.01,297.59 L78.02,297.53" fill="none" stroke="#1f5fa8" stroke-width="1.8"/>
<circle cx="88.42" cy="350.07" r="2.6" fill="#1f5fa8"/>
<circle cx="97.97" cy="350.07" r="2.6" fill="#1f5fa8"/>
<circle cx="98.02" cy="316.38" r="2.6" fill="#1f5fa8"/>
<circle cx="120.93" cy="312.60" r="2.6" fill="#1f5fa8"/>
<circle cx="170.36" cy="350.07" r="2.6" fill="#1f5fa8"/>
<circle cx="220.29" cy="350.07" r="2.6" fill="#1f5fa8"/>
<circle cx="270.23" cy="316.79" r="2.6" fill="#1f5fa8"/>
<circle cx="320.17" cy="315.05" r="2.6" fill="#1f5fa8"/>
<circle cx="370.12" cy="350.07" r="2.6" fill="#1f5fa8"/>
<circle cx="470.00" cy="314.71" r="2.6" fill="#1f5fa8"/>
<circle cx="114.35" cy="297.18" r="2.6" fill="#1f5fa8"/>
<circle cx="78.00" cy="297.70" r="2.6" fill="#1f5fa8"/>
<circle cx="78.01" cy="297.59" r="2.6" fill="#1f5fa8"/>
<circle cx="78.02" cy="297.53" r="2.6" fill="#1f5fa8"/>
<line x1="482" y1="52" x2="502" y2="52" stroke="#1f5fa8" stroke-width="2"/>
<text x="508" y="56">PLSR vs independent P</text>
<path d="M88.42,300.26 L97.97,294.04 L98.02,294.01 L120.93,279.10 L170.36,246.93 L220.29,214.44 L270.23,181.93 L320.17,149.43 L370.12,116.93 L470.00,51.93 L114.35,283.38 L78.00,307.04 L78.01,307.03 L78.02,307.03" fill="none" stroke="#c2410c" stroke-width="1.8"/>
<circle cx="88.42" cy="300.26" r="2.6" fill="#c2410c"/>
<circle cx="97.97" cy="294.04" r="2.6" fill="#c2410c"/>
<circle cx="98.02" cy="294.01" r="2.6" fill="#c2410c"/>
<circle cx="120.93" cy="279.10" r="2.6" fill="#c2410c"/>
<circle cx="170.36" cy="246.93" r="2.6" fill="#c2410c"/>
<circle cx="220.29" cy="214.44" r="2.6" fill="#c2410c"/>
<circle cx="270.23" cy="181.93" r="2.6" fill="#c2410c"/>
<circle cx="320.17" cy="149.43" r="2.6" fill="#c2410c"/>
<circle cx="370.12" cy="116.93" r="2.6" fill="#c2410c"/>
<circle cx="470.00" cy="51.93" r="2.6" fill="#c2410c"/>
<circle cx="114.35" cy="283.38" r="2.6" fill="#c2410c"/>
<circle cx="78.00" cy="307.04" r="2.6" fill="#c2410c"/>
<circle cx="78.01" cy="307.03" r="2.6" fill="#c2410c"/>
<circle cx="78.02" cy="307.03" r="2.6" fill="#c2410c"/>
<line x1="482" y1="70" x2="502" y2="70" stroke="#c2410c" stroke-width="2"/>
<text x="508" y="74">n^2 u cond(P) for n = 2</text>
</svg>
