<svg xmlns="http://www.w3.org/2000/svg" width="640" height="420" viewBox="0 0 640 420" font-family="sans-serif" font-size="11">
<rect width="640" height="420" fill="#ffffff"/>
<text x="78" y="22" font-size="13" font-weight="bold">Max chart/Jacobi state difference under frame changes (RK4, N = 64)</text>
<rect x="78" y="40" width="392" height="322" fill="none" stroke="#333"/>
<line x1="78.00" y1="40" x2="78.00" y2="362" stroke="#e5e7eb"/>
<text x="78.00" y="378" text-anchor="middle">1</text>
<line x1="208.67" y1="40" x2="208.67" y2="362" stroke="#e5e7eb"/>
<text x="208.67" y="378" text-anchor="middle">2</text>
<line x1="339.33" y1="40" x2="339.33" y2="362" stroke="#e5e7eb"/>
<text x="339.33" y="378" text-anchor="middle">3</text>
<line x1="470.00" y1="40" x2="470.00" y2="362" stroke="#e5e7eb"/>
<text x="470.00" y="378" text-anchor="middle">4</text>
<line x1="78" y1="350.07" x2="470" y2="350.07" stroke="#e5e7eb"/>
<text x="72" y="354.07" text-anchor="end">1e-18</text>
<line x1="78" y1="258.32" x2="470" y2="258.32" stroke="#e5e7eb"/>
<text x="72" y="262.32" text-anchor="end">1e-17</text>
<line x1="78" y1="166.57" x2="470" y2="166.57" stroke="#e5e7eb"/>
<text x="72" y="170.57" text-anchor="end">1e-16</text>
<line x1="78" y1="74.82" x2="470" y2="74.82" stroke="#e5e7eb"/>
<text x="72" y="78.82" text-anchor="end">1e-15</text>
<text x="274.00" y="406" text-anchor="middle">case index (rotations 1-3, basis angles 1-4)</text>
<text x="16" y="201.00" text-anchor="middle" transform="rotate(-90 16 201.00)">max |state - base state| (floored at 1e-18)</text>
<path d="M78.00,125.89 L208.67,134.79 L339.33,84.87" fill="none" stroke="#1f5fa8" stroke-width="1.8"/>
<circle cx="78.00" cy="125.89" r="2.6" fill="#1f5fa8"/>
<circle cx="208.67" cy="134.79" r="2.6" fill="#1f5fa8"/>
<circle cx="339.33" cy="84.87" r="2.6" fill="#1f5fa8"/>
<line x1="482" y1="52" x2="502" y2="52" stroke="#1f5fa8" stroke-width="2"/>
<text x="508" y="56">rotation: sphere</text>
<path d="M78.00,350.07 L208.67,162.41 L339.33,350.07 L470.00,130.09" fill="none" stroke="#c2410c" stroke-width="1.8"/>
<circle cx="78.00" cy="350.07" r="2.6" fill="#c2410c"/>
<circle cx="208.67" cy="162.41" r="2.6" fill="#c2410c"/>
<circle cx="339.33" cy="350.07" r="2.6" fill="#c2410c"/>
<circle cx="470.00" cy="130.09" r="2.6" fill="#c2410c"/>
<line x1="482" y1="70" x2="502" y2="70" stroke="#c2410c" stroke-width="2"/>
<text x="508" y="74">basis angle: sphere</text>
<path d="M78.00,51.93 L208.67,79.55 L339.33,89.38" fill="none" stroke="#15803d" stroke-width="1.8"/>
<circle cx="78.00" cy="51.93" r="2.6" fill="#15803d"/>
<circle cx="208.67" cy="79.55" r="2.6" fill="#15803d"/>
<circle cx="339.33" cy="89.38" r="2.6" fill="#15803d"/>
<line x1="482" y1="88" x2="502" y2="88" stroke="#15803d" stroke-width="2"/>
<text x="508" y="92">rotation: torus</text>
<path d="M78.00,350.07 L208.67,350.07 L339.33,350.07 L470.00,51.93" fill="none" stroke="#7e22ce" stroke-width="1.8"/>
<circle cx="78.00" cy="350.07" r="2.6" fill="#7e22ce"/>
<circle cx="208.67" cy="350.07" r="2.6" fill="#7e22ce"/>
<circle cx="339.33" cy="350.07" r="2.6" fill="#7e22ce"/>
<circle cx="470.00" cy="51.93" r="2.6" fill="#7e22ce"/>
<line x1="482" y1="106" x2="502" y2="106" stroke="#7e22ce" stroke-width="2"/>
<text x="508" y="110">basis angle: torus</text>
<path d="M78.00,91.01 L208.67,107.17 L339.33,79.55" fill="none" stroke="#b91c1c" stroke-width="1.8"/>
<circle cx="78.00" cy="91.01" r="2.6" fill="#b91c1c"/>
<circle cx="208.67" cy="107.17" r="2.6" fill="#b91c1c"/>
<circle cx="339.33" cy="79.55" r="2.6" fill="#b91c1c"/>
<line x1="482" y1="124" x2="502" y2="124" stroke="#b91c1c" stroke-width="2"/>
<text x="508" y="128">rotation: saddle</text>
<path d="M78.00,107.17 L208.67,162.41 L339.33,107.17 L470.00,107.17" fill="none" stroke="#0f766e" stroke-width="1.8"/>
<circle cx="78.00" cy="107.17" r="2.6" fill="#0f766e"/>
<circle cx="208.67" cy="162.41" r="2.6" fill="#0f766e"/>
<circle cx="339.33" cy="107.17" r="2.6" fill="#0f766e"/>
<circle cx="470.00" cy="107.17" r="2.6" fill="#0f766e"/>
<line x1="482" y1="142" x2="502" y2="142" stroke="#0f766e" stroke-width="2"/>
<text x="508" y="146">basis angle: saddle</text>
<path d="M78.00,162.41 L208.67,162.41 L339.33,63.39" fill="none" stroke="#a16207" stroke-width="1.8"/>
<circle cx="78.00" cy="162.41" r="2.6" fill="#a16207"/>
<circle cx="208.67" cy="162.41" r="2.6" fill="#a16207"/>
<circle cx="339.33" cy="63.39" r="2.6" fill="#a16207"/>
<line x1="482" y1="160" x2="502" y2="160" stroke="#a16207" stroke-width="2"/>
<text x="508" y="164">rotation: gaussian-bump</text>
<path d="M78.00,107.17 L208.67,118.63 L339.33,118.63 L470.00,107.17" fill="none" stroke="#475569" stroke-width="1.8"/>
<circle cx="78.00" cy="107.17" r="2.6" fill="#475569"/>
<circle cx="208.67" cy="118.63" r="2.6" fill="#475569"/>
<circle cx="339.33" cy="118.63" r="2.6" fill="#475569"/>
<circle cx="470.00" cy="107.17" r="2.6" fill="#475569"/>
<line x1="482" y1="178" x2="502" y2="178" stroke="#475569" stroke-width="2"/>
<text x="508" y="182">basis angle: hyperbolic-plane</text>
<metadata id="ciw-plotted-values">{"series":[{"name":"rotation: sphere","x":[1.0,2.0,3.0],"y":[2.7755575615628914e-16,2.220446049250313e-16,7.771561172376096e-16],"bound":[3.552713678800501e-15,3.552713678800501e-15,3.552713678800501e-15]},{"name":"basis angle: sphere","x":[1.0,2.0,3.0,4.0],"y":[1e-18,1.1102230246251565e-16,1e-18,2.498001805406602e-16],"bound":[3.552713678800501e-15,3.552713678800501e-15,3.552713678800501e-15,3.552713678800501e-15]},{"name":"rotation: torus","x":[1.0,2.0,3.0],"y":[1.7763568394002505e-15,8.881784197001252e-16,6.938893903907228e-16],"bound":[3.552713678800501e-15,3.552713678800501e-15,3.552713678800501e-15]},{"name":"basis angle: torus","x":[1.0,2.0,3.0,4.0],"y":[1e-18,1e-18,1e-18,1.7763568394002505e-15],"bound":[3.552713678800501e-15,3.552713678800501e-15,3.552713678800501e-15,3.552713678800501e-15]},{"name":"rotation: saddle","x":[1.0,2.0,3.0],"y":[6.661338147750939e-16,4.440892098500626e-16,8.881784197001252e-16],"bound":[3.552713678800501e-15,3.552713678800501e-15,3.552713678800501e-15]},{"name":"basis angle: saddle","x":[1.0,2.0,3.0,4.0],"y":[4.440892098500626e-16,1.1102230246251565e-16,4.440892098500626e-16,4.440892098500626e-16],"bound":[3.552713678800501e-15,3.552713678800501e-15,3.552713678800501e-15,3.552713678800501e-15]},{"name":"rotation: gaussian-bump","x":[1.0,2.0,3.0],"y":[1.1102230246251565e-16,1.1102230246251565e-16,1.3322676295501878e-15],"bound":[3.552713678800501e-15,3.552713678800501e-15,3.552713678800501e-15]},{"name":"basis angle: hyperbolic-plane","x":[1.0,2.0,3.0,4.0],"y":[4.440892098500626e-16,3.3306690738754696e-16,3.3306690738754696e-16,4.440892098500626e-16],"bound":[3.552713678800501e-15,3.552713678800501e-15,3.552713678800501e-15,3.552713678800501e-15]}]}</metadata>
</svg>
